
<svg
  version="1.0"
  xmlns="http://www.w3.org/2000/svg"
  xmlns:xlink="http://www.w3.org/1999/xlink"
  width="2400"
  height="1800"
>
  
  <rect
    x="0"
    y="0"
    width="100%"
    height="100%"
    fill="#fff"
    fill-opacity="1"
  ></rect>
  <svg
    version="1.0"
    xmlns="http://www.w3.org/2000/svg"
    xmlns:xlink="http://www.w3.org/1999/xlink"
    x="0"
    y="0"
    width="2400"
    height="1800"
    viewBox="0 0 340.000000 250.000000"
    preserveAspectRatio="xMidYMid meet"
    color-interpolation-filters="sRGB"
  >
    <defs><linearGradient id="92" x1="0%" y1="0%" x2="100%" y2="0%"><stop offset="0%" stop-color="#fa71cd"/> <stop offset="100%" stop-color="#9b59b6"/></linearGradient><linearGradient id="93" x1="0%" y1="0%" x2="100%" y2="0%"><stop offset="0%" stop-color="#f9d423"/> <stop offset="100%" stop-color="#f83600"/></linearGradient><linearGradient id="94" x1="0%" y1="0%" x2="100%" y2="0%"><stop offset="0%" stop-color="#0064d2"/> <stop offset="100%" stop-color="#1cb0f6"/></linearGradient><linearGradient id="95" x1="0%" y1="0%" x2="100%" y2="0%"><stop offset="0%" stop-color="#f00978"/> <stop offset="100%" stop-color="#3f51b1"/></linearGradient><linearGradient id="96" x1="0%" y1="0%" x2="100%" y2="0%"><stop offset="0%" stop-color="#7873f5"/> <stop offset="100%" stop-color="#ec77ab"/></linearGradient><linearGradient id="97" x1="0%" y1="0%" x2="100%" y2="0%"><stop offset="0%" stop-color="#f9d423"/> <stop offset="100%" stop-color="#e14fad"/></linearGradient><linearGradient id="98" x1="0%" y1="0%" x2="100%" y2="0%"><stop offset="0%" stop-color="#009efd"/> <stop offset="100%" stop-color="#2af598"/></linearGradient><linearGradient id="99" x1="0%" y1="0%" x2="100%" y2="0%"><stop offset="0%" stop-color="#ffcc00"/> <stop offset="100%" stop-color="#00b140"/></linearGradient><linearGradient id="100" x1="0%" y1="0%" x2="100%" y2="0%"><stop offset="0%" stop-color="#d51007"/> <stop offset="100%" stop-color="#ff8177"/></linearGradient><linearGradient id="102" x1="0%" y1="0%" x2="100%" y2="0%"><stop offset="0%" stop-color="#a2b6df"/> <stop offset="100%" stop-color="#0c3483"/></linearGradient><linearGradient id="103" x1="0%" y1="0%" x2="100%" y2="0%"><stop offset="0%" stop-color="#7ac5d8"/> <stop offset="100%" stop-color="#eea2a2"/></linearGradient><linearGradient id="104" x1="0%" y1="0%" x2="100%" y2="0%"><stop offset="0%" stop-color="#00ecbc"/> <stop offset="100%" stop-color="#007adf"/></linearGradient><linearGradient id="105" x1="0%" y1="0%" x2="100%" y2="0%"><stop offset="0%" stop-color="#b88746"/> <stop offset="100%" stop-color="#fdf5a6"/></linearGradient></defs> <g fill="#444" class="icon-text-wrapper icon-svg-group iconsvg" transform="translate(48.69499969482422,96.14912986755371)"><g class="iconsvg-imagesvg" transform="translate(0,0)"><g><rect fill="#444" fill-opacity="0" stroke-width="2" x="0" y="0" width="60" height="57.70173970745218" class="image-rect"/> <svg filter="url(#colors2012020939)" x="0" y="0" width="60" height="57.70173970745218" filtersec="colorsf4681277763" class="image-svg-svg primary" style="overflow: visible;"><svg fill="#000000" xmlns:x="http://ns.adobe.com/Extensibility/1.0/" xmlns:i="http://ns.adobe.com/AdobeIllustrator/10.0/" xmlns:graph="http://ns.adobe.com/Graphs/1.0/" xmlns="http://www.w3.org/2000/svg" xmlns:xlink="http://www.w3.org/1999/xlink" version="1.1" x="0px" y="0px" viewBox="2.4398107528686523 4.316932201385498 95.0649642944336 91.42379760742188" style="enable-background:new 0 0 100 100;" xml:space="preserve"><g><g i:extraneous="self"><g><path d="M63.4,15.6c0.5,0.5,0.5,1.2,0.2,1.8l-2.4,4.4c-0.7,1.3,0.7,2.8,2,2.2l4.5-2.1c0.6-0.3,1.3-0.1,1.8,0.4l3.4,3.6     c1,1.1,2.9,0.2,2.7-1.3l-0.6-5c-0.1-0.7,0.3-1.3,0.9-1.6l4.5-2.1c1.4-0.7,1.1-2.7-0.4-3l-4.9-1c-0.7-0.1-1.2-0.7-1.3-1.3     l-0.6-4.9c-0.2-1.5-2.2-1.9-2.9-0.6l-2.4,4.3c-0.3,0.6-1,0.9-1.7,0.8l-4.9-0.9C60,9,59,10.8,60,11.9L63.4,15.6z"/><path d="M55.1,47c0.5,0.3,0.7,0.8,0.6,1.3l-0.8,3.8c-0.3,1.2,1.1,2,2,1.2l2.9-2.5c0.4-0.3,1-0.4,1.4-0.1l3.3,2     c1,0.6,2.2-0.5,1.7-1.5l-1.5-3.6c-0.2-0.5-0.1-1,0.3-1.4l2.9-2.6c0.9-0.8,0.3-2.2-0.9-2.1l-3.9,0.3c-0.5,0-1-0.2-1.2-0.7     l-1.6-3.5c-0.5-1.1-2.1-0.9-2.3,0.2l-0.9,3.8c-0.1,0.5-0.6,0.9-1.1,0.9l-3.8,0.4c-1.2,0.1-1.5,1.7-0.5,2.3L55.1,47z"/><path d="M96.9,56.6l-3.4-2.4c-0.5-0.3-0.7-0.9-0.5-1.5l1.1-4c0.4-1.2-1.1-2.2-2.1-1.4l-3.3,2.5c-0.5,0.3-1.1,0.4-1.5,0l-3.5-2.3     c-1.1-0.7-2.4,0.3-2,1.5l1.4,3.9c0.2,0.5,0,1.1-0.4,1.5l-3.3,2.6c-1,0.8-0.4,2.4,0.8,2.4l4.2-0.1c0.6,0,1.1,0.3,1.3,0.9l1.4,3.9     c0.4,1.2,2.1,1.1,2.5-0.1l1.2-4c0.2-0.5,0.7-0.9,1.2-0.9l4.2-0.2C97.5,59,98,57.4,96.9,56.6z"/><path d="M76.4,75.5c-4.7,0.4-9.6,0-14.5-1.5c-19.8-6.2-30.9-27.2-24.8-47c1.5-4.8,3.9-9.1,6.9-12.8c1.7-2,0-4.9-2.6-4.7     C24.7,11.2,9.8,22.6,4.4,39.8c-7.1,22.8,5.7,47,28.5,54c17.1,5.3,35-0.6,45.9-13.5C80.5,78.4,79,75.3,76.4,75.5z"/></g></g></g></svg></svg> <defs><filter id="colors2012020939"><feColorMatrix type="matrix" values="0 0 0 0 0.265625  0 0 0 0 0.265625  0 0 0 0 0.265625  0 0 0 1 0" class="icon-feColorMatrix "/></filter> <filter id="colorsf4681277763"><feColorMatrix type="matrix" values="0 0 0 0 0.99609375  0 0 0 0 0.99609375  0 0 0 0 0.99609375  0 0 0 1 0" class="icon-fecolormatrix"/></filter> <filter id="colorsb2873990599"><feColorMatrix type="matrix" values="0 0 0 0 0  0 0 0 0 0  0 0 0 0 0  0 0 0 1 0" class="icon-fecolormatrix"/></filter></defs></g></g> <g transform="translate(67,0.4996185302734375)"><g fill-rule="" class="tp-name iconsvg-namesvg" transform="translate(0,0)"><g transform="scale(1)"><g><path d="M18.15-3.52L18.15-3.52 29.97-3.52 29.97-14.59Q29.97-15.64 28.87-15.64L28.87-15.64 20.65-15.64Q19.78-10.94 18.15-3.52ZM39.81 1.8L39.81 1.8 5.36 1.8Q2.68 1.8 2.68-0.83L2.68-0.83Q2.68-3.52 5.36-3.52L5.36-3.52 12.22-3.52Q13.62-9.23 14.85-15.64L14.85-15.64 9.4-15.64Q6.81-15.64 6.81-18.33L6.81-18.33Q6.81-20.92 9.4-20.92L9.4-20.92 15.82-20.92Q15.95-21.71 16.44-24.5 16.92-27.29 17.14-28.74L17.14-28.74 7.91-28.74Q5.32-28.74 5.32-31.42L5.32-31.42Q5.32-34.01 7.91-34.01L7.91-34.01 36.96-34.01Q39.55-34.01 39.55-31.42L39.55-31.42Q39.55-28.74 36.96-28.74L36.96-28.74 23.07-28.74Q22.63-26.19 21.67-20.92L21.67-20.92 32.56-20.92Q33.88-20.92 34.69-20.13 35.51-19.34 35.51-18.02L35.51-18.02 35.51-3.52 39.81-3.52Q42.5-3.52 42.5-0.83L42.5-0.83Q42.5 1.8 39.81 1.8ZM58.8-14.72L58.8-14.72 76.99-14.72 76.99-20.21 59.15-20.21Q59.11-17.84 58.8-14.72ZM59.15-29.71L59.15-25.27 76.99-25.27 76.99-29.71Q76.99-30.76 75.89-30.76L75.89-30.76 60.21-30.76Q59.15-30.76 59.15-29.71L59.15-29.71ZM56.56-35.99L56.56-35.99 79.72-35.99Q81.04-35.99 81.83-35.2 82.62-34.41 82.62-33.09L82.62-33.09 82.62-2.94Q82.62-0.48 81.98 0.79 81.34 2.07 79.8 2.72L79.8 2.72Q77.61 3.65 73.34 3.74L73.34 3.74Q69.92 3.82 69.08 1.58L69.08 1.58Q68.38-0.22 69.41-1.01 70.44-1.8 72.69-1.71L72.69-1.71 75.54-1.71Q76.38-1.71 76.68-2 76.99-2.29 76.99-3.03L76.99-3.03 76.99-9.54 57.92-9.54Q56.29-2.64 52.56 1.76L52.56 1.76Q50.41 3.91 48.47 2.07L48.47 2.07Q46.27 0 48.87-2.64L48.87-2.64Q51.77-6.37 52.71-10.99 53.66-15.6 53.66-21.18L53.66-21.18 53.66-33.09Q53.66-34.41 54.45-35.2 55.24-35.99 56.56-35.99ZM99.71-12.04L99.71-12.04 99.71-29.79Q99.71-30.85 98.66-30.85L98.66-30.85 98.13-30.85Q97.08-30.85 97.08-29.79L97.08-29.79 97.08-12.04Q97.08-10.99 98.13-10.99L98.13-10.99 98.66-10.99Q99.71-10.99 99.71-12.04ZM95.93-35.11L95.93-35.11 101.21-35.11Q102.39-35.11 103.07-34.41 103.75-33.71 103.75-32.52L103.75-32.52 103.75-9.62Q103.75-8.31 102.96-7.51 102.17-6.72 100.85-6.72L100.85-6.72 95.93-6.72Q94.61-6.72 93.82-7.51 93.03-8.31 93.03-9.62L93.03-9.62 93.03-32.17Q93.03-33.49 93.82-34.3 94.61-35.11 95.93-35.11ZM112.02-29.4L112.02-29.4 117.47-29.4Q118.3-29.4 118.65-28.67 119-27.95 118.96-26.06L118.96-26.06Q118.61-11.56 118.15-5.95 117.69-0.35 116.76 1.01L116.76 1.01Q116.02 2.33 115.09 2.75 114.17 3.16 112.28 3.3L112.28 3.3Q109.78 3.3 109.25 1.14L109.25 1.14Q108.94-0.18 109.47-0.79 110-1.41 111.4-1.32L111.4-1.32Q112.28-1.32 112.72-2.15L112.72-2.15Q113.33-3.03 113.71-7.51 114.08-12 114.39-22.46L114.39-22.46Q114.43-23.77 114.17-24.21 113.91-24.65 113.33-24.65L113.33-24.65 111.93-24.65Q111.67-15.16 110.43-8.72 109.2-2.29 106.17 2.15L106.17 2.15Q105.29 3.3 104.61 3.32 103.93 3.34 102.92 2.33L102.92 2.33Q101.95 1.36 101.89 0.66 101.82-0.04 102.61-1.14L102.61-1.14Q105.21-5.05 106.24-10.63 107.27-16.22 107.45-24.65L107.45-24.65 107.23-24.65Q104.9-24.65 104.9-27.03 104.9-29.4 107.23-29.4L107.23-29.4 107.49-29.4Q107.53-31.38 107.53-35.55L107.53-35.55Q107.53-37.88 109.82-37.88L109.82-37.88Q112.06-37.88 112.06-35.6L112.06-35.6Q112.06-31.42 112.02-29.4ZM124.37-27.29L124.37-27.29 124.37-7.12Q124.37-6.02 125.46-6.02L125.46-6.02 126.61-6.02Q127.66-6.02 127.66-7.12L127.66-7.12 127.66-27.29Q127.66-28.34 126.61-28.34L126.61-28.34 125.46-28.34Q124.37-28.34 124.37-27.29ZM123.09-33.05L123.09-33.05 129.29-33.05Q130.56-33.05 131.33-32.26 132.1-31.46 132.1-30.19L132.1-30.19 132.1-4.22Q132.1-2.9 131.31-2.11 130.52-1.32 129.2-1.32L129.2-1.32 123.09-1.32Q121.77-1.32 120.96-2.11 120.15-2.9 120.15-4.22L120.15-4.22 120.15-30.1Q120.15-31.42 120.96-32.23 121.77-33.05 123.09-33.05ZM142.78-28.08L142.78-28.08 142.78-13.71 145.99-13.71 145.99-28.08Q145.99-29.18 144.89-29.18L144.89-29.18 143.88-29.18Q142.78-29.18 142.78-28.08ZM140.98-33.97L140.98-33.97 147.79-33.97Q149.11-33.97 149.9-33.18 150.69-32.39 150.69-31.07L150.69-31.07 150.69-10.63Q151.83-10.99 154.58-11.8 157.32-12.61 157.85-12.79L157.85-12.79Q158.07-14.68 158.07-17.18L158.07-17.18 154.29-17.18Q151.92-17.18 151.92-19.56L151.92-19.56Q151.92-21.97 154.29-21.97L154.29-21.97 158.07-21.97 158.07-26.28 154.03-26.28Q151.61-26.28 151.61-28.7L151.61-28.7Q151.61-31.16 154.03-31.16L154.03-31.16 158.07-31.16 158.07-35.2Q158.07-37.71 160.66-37.71L160.66-37.71Q163.17-37.71 163.17-35.2L163.17-35.2 163.17-17.27Q163.17-15.38 163.13-14.37L163.13-14.37Q163.56-14.59 163.98-14.17 164.4-13.75 164.49-13.18L164.49-13.18Q164.62-12.22 164.33-11.27 164.05-10.33 163.3-10.02L163.3-10.02 162.69-9.76Q161.41-1.71 156.23 2.55L156.23 2.55Q154.12 4 152.49 2.59L152.49 2.59Q150.34 0.62 153.11-1.58L153.11-1.58Q155.57-3.96 156.75-7.43L156.75-7.43Q156.31-7.25 155.39-6.9 154.47-6.55 153.98-6.37L153.98-6.37Q152.93-6.02 152.03-6.42 151.13-6.81 150.69-7.91L150.69-7.91 150.29-8.88 142.78-8.88 142.78-7.34Q142.78-5.01 140.45-5.01L140.45-5.01Q138.08-5.01 138.08-7.34L138.08-7.34 138.08-31.07Q138.08-32.39 138.87-33.18 139.66-33.97 140.98-33.97ZM170.77-17.18L170.77-12.74 175.87-12.74Q178.29-12.74 178.29-10.28L178.29-10.28Q178.29-7.87 175.87-7.87L175.87-7.87 170.77-7.87 170.77 1.32Q170.77 3.87 168.22 3.87L168.22 3.87Q165.59 3.87 165.59 1.32L165.59 1.32 165.59-35.24Q165.59-37.79 168.22-37.79L168.22-37.79Q170.77-37.79 170.77-35.24L170.77-35.24 170.77-31.16 175.43-31.16Q177.85-31.16 177.85-28.7L177.85-28.7Q177.85-26.28 175.43-26.28L175.43-26.28 170.77-26.28 170.77-21.97 174.81-21.97Q177.23-21.97 177.23-19.56L177.23-19.56Q177.23-17.18 174.81-17.18L174.81-17.18 170.77-17.18Z" transform="translate(-2.680000066757202, 37.880001068115234)"/></g> </g></g> <g fill-rule="" class="tp-slogan iconsvg-slogansvg" fill="#444" transform="translate(5,47.750003814697266)"><rect x="0" height="1" y="3.9750008583068848" width="41.71500015258789"/> <rect height="1" y="3.9750008583068848" width="41.71500015258789" x="123.89500045776367"/> <g transform="translate(44.71500015258789,0)"><g transform="scale(1)"><path d="M9.14-8.58L9.14 0L8.02 0L8.02-5.06Q8.02-5.77 8.02-7.22L8.02-7.22L5.58 0L4.41 0L2.02-7.22L1.97-7.22Q1.97-6.70 2.02-5.67L2.02-5.67Q2.02-5.16 2.02-5.06L2.02-5.06L2.02 0L0.84 0L0.84-8.58L2.53-8.58L5.02-1.31L7.45-8.58L9.14-8.58ZM16.50 0L15.66-2.48L12.19-2.48L11.30 0L10.13 0L13.36-8.58L14.67-8.58L17.77 0L16.50 0ZM13.92-7.31L12.56-3.52L15.23-3.52L13.97-7.31L13.92-7.31ZM25.73-8.58L22.50-3.47L22.50 0L21.33 0L21.33-3.47L18.09-8.58L19.45-8.58L21.89-4.45L24.38-8.58L25.73-8.58ZM37.27-6.05L37.27-6.05L36.14-6.05Q35.72-7.78 33.75-7.83L33.75-7.83Q31.03-7.69 30.94-4.36L30.94-4.36Q30.94-0.80 33.80-0.80L33.80-0.80Q35.77-0.84 36.23-3.19L36.23-3.19L37.36-3.19Q36.84 0.05 33.56 0.14L33.56 0.14Q29.81 0 29.72-4.31L29.72-4.31Q29.91-8.63 33.75-8.81L33.75-8.81Q36.80-8.72 37.27-6.05ZM45.52-4.27L45.52-4.27Q45.33-7.64 42.52-7.83L42.52-7.83Q39.66-7.69 39.52-4.27L39.52-4.27Q39.66-0.94 42.52-0.80L42.52-0.80Q45.33-0.98 45.52-4.27ZM46.69-4.27L46.69-4.27Q46.41 0 42.52 0.14L42.52 0.14Q38.58 0 38.30-4.27L38.30-4.27Q38.53-8.72 42.52-8.81L42.52-8.81Q46.41-8.67 46.69-4.27ZM53.58-3.89L49.36-3.89L49.36 0L48.19 0L48.19-8.58L54.14-8.58L54.14-7.59L49.36-7.59L49.36-4.92L53.58-4.92L53.58-3.89ZM60.84-3.89L56.63-3.89L56.63 0L55.45 0L55.45-8.58L61.41-8.58L61.41-7.59L56.63-7.59L56.63-4.92L60.84-4.92L60.84-3.89ZM63.89-1.03L69.05-1.03L69.05 0L62.72 0L62.72-8.58L68.95-8.58L68.95-7.59L63.89-7.59L63.89-4.92L68.58-4.92L68.58-3.89L63.89-3.89L63.89-1.03ZM71.86-1.03L77.02-1.03L77.02 0L70.69 0L70.69-8.58L76.92-8.58L76.92-7.59L71.86-7.59L71.86-4.92L76.55-4.92L76.55-3.89L71.86-3.89L71.86-1.03Z" transform="translate(-0.84375, 8.8125)"/></g></g></g></g></g><defs v-gra="od"/>
  </svg>
</svg>


